<?xml version="1.0" encoding="utf-8"?>
<!-- Generator: Adobe Illustrator 18.0.0, SVG Export Plug-In . SVG Version: 6.00 Build 0)  -->
<!DOCTYPE svg PUBLIC "-//W3C//DTD SVG 1.1//EN" "http://www.w3.org/Graphics/SVG/1.1/DTD/svg11.dtd">
<svg version="1.1" id="Слой_2" xmlns="http://www.w3.org/2000/svg" xmlns:xlink="http://www.w3.org/1999/xlink" x="0px" y="0px"
	 viewBox="0 0 128 128" enable-background="new 0 0 128 128" xml:space="preserve">
<g>
	<g>
		<path d="M79.3,42.3c1.7,0,3.3,0.7,4.5,1.9l15.9,16.6c2.3,2.4,2.3,6.2,0,8.6L83.8,85.8c-1.2,1.2-2.8,1.9-4.4,1.9H50.6
			c-1.7,0-3.3-0.7-4.5-1.9L30.1,69c-2.3-2.4-2.3-6.2,0.1-8.6l16-16.3c1.2-1.2,2.8-1.8,4.4-1.8H79.3 M79.3,40.3H50.6
			c-2.2,0-4.3,0.9-5.8,2.4L28.7,59c-3.1,3.2-3.1,8.2-0.1,11.4l16.1,16.8c1.5,1.6,3.7,2.5,5.9,2.5h28.7c2.2,0,4.3-0.9,5.9-2.5
			l15.9-16.5c3-3.2,3.1-8.2,0-11.3L85.2,42.8C83.7,41.2,81.5,40.3,79.3,40.3L79.3,40.3z"/>
	</g>
	<g>
		<path d="M88.5,64.3c-0.1-0.1-0.2-0.2-0.3-0.3c0,0-0.1,0-0.1,0v3.2C88.5,66.4,88.6,65.3,88.5,64.3z M87.8,62.1
			c-0.2-0.3-0.4-0.6-0.6-0.9l-1.2-1.5l-8.5-10c-1-1.1-2.3-1.7-3.6-1.7H56.1c-1.3,0-2.6,0.6-3.6,1.7l-8.9,10l-1,1.1
			c-0.4,0.4-0.7,0.9-0.9,1.5c0.3,0.1,0.6,0.3,0.8,0.4c0.3,0.2,0.6,0.5,0.7,0.8c0.4,1.1,0.4,2.3,0,3.3c-0.2,0.6-0.6,1-1.1,1.2
			c0.1,0.2,0.3,0.4,0.4,0.5l2.1,2.4l7.8,9.1c1,1.1,2.3,1.7,3.6,1.7h17.6c1.4,0,2.7-0.6,3.6-1.7l7.9-9.1l1.9-2.2
			c0.1-0.1,0.2-0.3,0.3-0.5h-1.1v-6.4C86.8,62.1,87.3,62.1,87.8,62.1z M77.5,67.4c0.2,0.1,0.5,0.2,0.7,0.3c0.9,0,1.8,0.1,2.8,0
			c0.9-0.1,1.5-0.9,1.5-1.9c0-1.1,0-2.2,0-3.3c0-0.3,0-0.5,0.4-0.4c0.4,0.1,0.9,0,1.4,0c0,0.5,0,1,0,1.5c0,1.1,0,2.2-0.1,3.3
			c-0.1,0.6-0.4,1.2-1,1.6c-0.6,0.4-1.3,0.6-2.1,0.6c-1.5,0.1-2.9,0.2-4.4-0.2c-1-0.3-1.7-0.9-1.8-2.1c-0.1-1.4-0.1-2.9-0.1-4.3
			c0-0.1,0.2-0.3,0.3-0.3c0.5,0,1,0,1.5,0v0.9c0,0.9,0,1.9,0,2.8C76.7,66.4,76.9,67,77.5,67.4z M70.9,66.3c-1.3-0.2-2.7-0.4-4-0.7
			c-0.6-0.1-1.3-0.3-1.9-0.4c-0.5-0.1-0.7-0.4-0.7-0.9c0-0.3,0-0.6,0-0.9c0-0.6,0.3-1,1-1.1c0.8-0.2,1.6-0.3,2.4-0.4
			c0.5-0.1,1-0.2,1.6-0.2c0.7,0,1.4,0.2,2.1,0.3c0.3,0.1,0.7,0.1,1,0.1c0.3,0,0.4,0.1,0.4,0.5c0,0.2,0,0.5,0,0.8
			c-0.6-0.1-1.2-0.3-1.7-0.4c-0.7-0.1-1.5-0.2-2.2-0.2c-0.8,0-1.7,0-2.5,0.3c-0.1,0-0.2,0-0.3,0.1c-0.1,0.1-0.2,0.2-0.2,0.3
			c0,0.1,0.1,0.3,0.2,0.3c0.2,0.1,0.4,0.1,0.6,0.1c1.4,0.2,2.8,0.5,4.1,0.7c0.5,0.1,1,0.2,1.5,0.4c0.5,0.2,0.7,0.5,0.8,1
			c0,0.4,0,0.9,0,1.3c0,0.5-0.3,0.8-0.8,0.9c-0.6,0.2-1.3,0.4-1.9,0.4c-1.8,0.2-3.6,0.1-5.4-0.2c-0.2,0-0.5-0.1-0.7-0.2
			c-0.1,0-0.2-0.1-0.2-0.2c0-0.3,0-0.6,0-1c0.5,0.1,1,0.2,1.5,0.3c1.7,0.2,3.4,0.3,5.1,0c0.5-0.1,0.6-0.3,0.6-0.8
			C71.4,66.5,71.2,66.3,70.9,66.3z M57,63.3c-1,0-2,0-3,0c-0.3,0-0.4-0.1-0.4-0.4c0-0.3,0-0.5,0-0.9h0.6c2.8,0,5.7,0,8.5,0
			c0.3,0,0.4,0.1,0.4,0.3c0,0.9,0,0.9-0.9,0.9c-0.9,0-1.7,0-2.6,0c-0.3,0-0.4,0.1-0.4,0.4c0,1.4,0,2.8,0,4.3c0,0.5,0,0.5-0.6,0.6
			h-1.2c0-0.2-0.1-0.4-0.1-0.6c0-1.4,0-2.8,0-4.1C57.5,63.4,57.3,63.3,57,63.3z M43.6,68.5c0.4-0.7,0.8-1.3,1.2-1.9
			c0.5-0.7,1-1.4,1.5-2.1c0.5-0.8,1-1.6,1.6-2.4c0.1-0.1,0.3-0.2,0.5-0.2c0.6,0,1.2,0,1.9,0c0.1,0,0.3,0.1,0.3,0.2
			c0.6,1,1.3,1.9,1.9,2.9c0.5,0.8,1,1.6,1.5,2.4c0.2,0.3,0.4,0.6,0.7,1c-0.8,0-1.4,0-2.1,0c-0.2,0-0.4-0.3-0.5-0.5
			c-0.2-0.6-0.6-0.8-1.2-0.8c-1.3,0-2.7,0-4,0c-0.2,0-0.4,0-0.5,0.3c-0.3,0.7-0.8,1.1-1.7,1C44.4,68.5,44,68.5,43.6,68.5z"/>
	</g>
	<path d="M98.4,62.2c-0.3-0.6-0.7-1.2-1.1-1.7C97,60,96.7,59.7,96,59.7c-0.9,0-4.7,0-10.1,0c-11.7,0-30.6,0-42.3,0H33.3
		c-0.2,0-0.4,0-0.5,0.1c-0.5,0.7-1,1.3-1.5,2.1c-0.3,0.5-0.5,1-0.8,1.5c-0.7,1.3-0.7,2.6-0.1,3.9c0.5,1.3,1.3,2.4,2.1,3.4
		c0.2,0.3,0.5,0.4,0.9,0.4h11.2c11.5,0,29.1,0,40.6,0h11c0.2,0,0.4-0.1,0.5-0.3c0.5-0.6,0.9-1.3,1.4-2c0.5-0.7,0.8-1.4,1-2.3
		C99.7,65,99.2,63.6,98.4,62.2z M41.2,68.4c-0.5,0.1-1,0.1-1.5,0.1c-1.7,0-3.5,0-5.2,0H34V62c2,0,4,0,6,0c0.6,0,1.2,0.1,1.8,0.3
		c0.3,0.1,0.6,0.3,0.8,0.4c0.3,0.2,0.6,0.5,0.7,0.8c0.4,1.1,0.4,2.3,0,3.3c-0.2,0.6-0.6,1-1.1,1.2C41.9,68.3,41.6,68.4,41.2,68.4z
		 M52.6,68.5c-0.2,0-0.4-0.3-0.5-0.5c-0.2-0.6-0.6-0.8-1.2-0.8c-1.3,0-2.7,0-4,0c-0.2,0-0.4,0-0.5,0.3c-0.3,0.7-0.8,1.1-1.7,1
		c-0.3-0.1-0.7,0-1.1,0c0.4-0.7,0.8-1.3,1.2-1.9c0.5-0.7,1-1.4,1.5-2.1c0.5-0.8,1-1.6,1.6-2.4c0.1-0.1,0.3-0.2,0.5-0.2
		c0.6,0,1.2,0,1.9,0c0.1,0,0.3,0.1,0.3,0.2c0.6,1,1.3,1.9,1.9,2.9c0.5,0.8,1,1.6,1.5,2.4c0.2,0.3,0.4,0.6,0.7,1
		C53.9,68.5,53.2,68.5,52.6,68.5z M62.2,63.3c-0.9,0-1.7,0-2.6,0c-0.3,0-0.4,0.1-0.4,0.4c0,1.4,0,2.8,0,4.3c0,0.5,0,0.5-0.6,0.6
		h-1.2c0-0.2-0.1-0.4-0.1-0.6c0-1.4,0-2.8,0-4.1c0-0.4-0.1-0.5-0.5-0.5c-1,0-2,0-3,0c-0.3,0-0.4-0.1-0.4-0.4c0-0.3,0-0.5,0-0.9h0.6
		c2.8,0,5.7,0,8.5,0c0.3,0,0.4,0.1,0.4,0.3C63.1,63.3,63.1,63.3,62.2,63.3z M73.1,67.5c0,0.5-0.3,0.8-0.8,0.9
		c-0.6,0.2-1.3,0.4-1.9,0.4c-1.8,0.2-3.6,0.1-5.4-0.2c-0.2,0-0.5-0.1-0.7-0.2c-0.1,0-0.2-0.1-0.2-0.2c0-0.3,0-0.6,0-1
		c0.5,0.1,1,0.2,1.5,0.3c1.7,0.2,3.4,0.3,5.1,0c0.5-0.1,0.6-0.3,0.6-0.8c0-0.3-0.2-0.5-0.5-0.5c-1.3-0.2-2.7-0.4-4-0.7
		c-0.6-0.1-1.3-0.3-1.9-0.4c-0.5-0.1-0.7-0.4-0.7-0.9c0-0.3,0-0.6,0-0.9c0-0.6,0.3-1,1-1.1c0.8-0.2,1.6-0.3,2.4-0.4
		c0.5-0.1,1-0.2,1.6-0.2c0.7,0,1.4,0.2,2.1,0.3c0.3,0.1,0.7,0.1,1,0.1c0.3,0,0.4,0.1,0.4,0.5c0,0.2,0,0.5,0,0.8
		c-0.6-0.1-1.2-0.3-1.7-0.4c-0.7-0.1-1.5-0.2-2.2-0.2c-0.8,0-1.7,0-2.5,0.3c-0.1,0-0.2,0-0.3,0.1c-0.1,0.1-0.2,0.2-0.2,0.3
		c0,0.1,0.1,0.3,0.2,0.3c0.2,0.1,0.4,0.1,0.6,0.1c1.4,0.2,2.8,0.5,4.1,0.7c0.5,0.1,1,0.2,1.5,0.4c0.5,0.2,0.7,0.5,0.8,1
		C73.1,66.7,73.1,67.1,73.1,67.5z M84.4,63.6c0,1.1,0,2.2-0.1,3.3c-0.1,0.6-0.4,1.2-1,1.6c-0.6,0.4-1.3,0.6-2.1,0.6
		c-1.5,0.1-2.9,0.2-4.4-0.2c-1-0.3-1.7-0.9-1.8-2.1c-0.1-1.4-0.1-2.9-0.1-4.3c0-0.1,0.2-0.3,0.3-0.3c0.5,0,1,0,1.5,0v0.9
		c0,0.9,0,1.9,0,2.8c0,0.7,0.2,1.3,0.8,1.7c0.2,0.1,0.5,0.2,0.7,0.3c0.9,0,1.8,0.1,2.8,0c0.9-0.1,1.5-0.9,1.5-1.9c0-1.1,0-2.2,0-3.3
		c0-0.3,0-0.5,0.4-0.4c0.4,0.1,0.9,0,1.4,0C84.4,62.6,84.4,63.1,84.4,63.6z M95.5,68.5c-0.7,0-1.4,0-2.1,0c-0.1,0-0.2-0.1-0.3-0.2
		c-0.7-0.6-1.3-1.2-2-1.8c-0.8-0.7-1.5-1.3-2.3-2c-0.1-0.1-0.2-0.2-0.3-0.3c-0.1-0.1-0.2-0.2-0.3-0.3c0,0-0.1,0-0.1,0v4.4h-1.8v-6.4
		c0.5,0,1,0,1.4,0c0.2,0,0.4,0,0.6,0c0.3,0,0.5,0.4,0.8,0.6c0.9,0.8,1.7,1.5,2.6,2.3c0.6,0.6,1.3,1.1,2,1.7v-4.7h1.8V68.5z"/>
	<path d="M38.1,67.3c-0.7,0-1.4,0-2,0c-0.3,0-0.4-0.1-0.4-0.4c0-1.1,0-2.1,0-3.2c0-0.3,0.1-0.4,0.4-0.4c1.3,0,2.5,0,3.8,0
		c0.5,0,1,0.2,1.4,0.5c0.1,0.1,0.2,0.2,0.2,0.3c0.2,0.8,0.3,1.6,0,2.4c-0.2,0.5-0.7,0.7-1.2,0.7C39.6,67.3,38.9,67.3,38.1,67.3
		C38.1,67.3,38.1,67.3,38.1,67.3z"/>
	<path d="M47.1,66.2c0.7-1,1.3-2,2-3.1c0.6,1,1.2,2,1.9,3.1C49.7,66.2,48.5,66.2,47.1,66.2z"/>
</g>
</svg>
