<?xml version="1.0" encoding="utf-8"?>
<!-- Generator: Adobe Illustrator 18.0.0, SVG Export Plug-In . SVG Version: 6.00 Build 0)  -->
<!DOCTYPE svg PUBLIC "-//W3C//DTD SVG 1.1//EN" "http://www.w3.org/Graphics/SVG/1.1/DTD/svg11.dtd">
<svg version="1.1" id="Слой_1" xmlns="http://www.w3.org/2000/svg" xmlns:xlink="http://www.w3.org/1999/xlink" x="0px" y="0px"
	 viewBox="0 0 128 128" enable-background="new 0 0 128 128" xml:space="preserve">
<g>
	<path d="M66.1,44.4c0.2,0,0.3,0.1,0.5,0.1c4.1,0,8.2,0.4,12.3,0.9c7.2,0.9,14.2,2.5,20.9,5.3c3.3,1.4,6.4,3,9,5.4
		c0.9,0.8,1.7,1.7,2.5,2.7c2.4,3.3,2.4,7.1,0,10.4c-1.6,2.4-3.9,4.1-6.3,5.5c-3.7,2.2-7.6,3.7-11.7,5c-4.8,1.4-9.7,2.4-14.6,3
		c-7.6,1-15.2,1.1-22.8,0.6c-7-0.5-13.8-1.5-20.5-3.4c-4.3-1.2-8.6-2.8-12.4-5.2c-2.4-1.5-4.6-3.2-6.2-5.5c-0.9-1.3-1.6-2.8-1.7-4.5
		c0-0.1,0-0.2-0.1-0.3c0-0.3,0-0.6,0-1c0-0.1,0.1-0.2,0.1-0.3c0.1-1.2,0.5-2.3,1.1-3.3c1.1-2.1,2.8-3.7,4.6-5
		c3.3-2.4,6.9-4.1,10.7-5.4c5.1-1.8,10.3-3,15.7-3.8c4.7-0.7,9.5-1.1,14.3-1.2c0.2,0,0.4,0,0.6-0.1C63.3,44.4,64.7,44.4,66.1,44.4z
		 M64,81.6c2-0.1,3.9-0.1,5.9-0.2c6.8-0.3,13.6-1.1,20.2-2.8c4.4-1.1,8.6-2.5,12.6-4.6c2.4-1.3,4.6-2.8,6.4-4.9
		c2.7-3.3,2.8-6.9,0.1-10.2c-1.3-1.6-2.9-2.8-4.6-3.9c-3.7-2.3-7.7-3.8-11.8-5c-7.7-2.2-15.5-3.2-23.4-3.6
		c-6.1-0.3-12.1-0.1-18.2,0.6c-5,0.5-9.9,1.4-14.7,2.7c-4.3,1.2-8.4,2.6-12.2,4.9c-2.2,1.3-4.1,2.8-5.6,4.8c-2.1,2.9-2.1,6-0.1,8.9
		c0.9,1.4,2.2,2.5,3.5,3.5c3.1,2.3,6.6,3.8,10.2,5c6,2,12.1,3.2,18.4,3.9C55,81.4,59.5,81.6,64,81.6z"/>
	<path fill="#FFFFFF" d="M64,81.6c-4.5,0-9-0.3-13.5-0.8c-6.3-0.7-12.4-1.9-18.4-3.9c-3.6-1.2-7.1-2.8-10.2-5
		c-1.3-1-2.6-2.1-3.5-3.5c-2-2.9-2-6.1,0.1-8.9c1.5-2.1,3.5-3.5,5.6-4.8c3.8-2.3,8-3.7,12.2-4.9c4.8-1.3,9.8-2.2,14.7-2.7
		c6.1-0.6,12.1-0.8,18.2-0.6c7.9,0.3,15.8,1.4,23.4,3.6c4.1,1.2,8.2,2.7,11.8,5c1.7,1.1,3.3,2.3,4.6,3.9c2.7,3.3,2.6,7-0.1,10.2
		c-1.8,2.1-4,3.6-6.4,4.9c-4,2.1-8.2,3.5-12.6,4.6c-6.6,1.6-13.4,2.5-20.2,2.8C67.9,81.5,66,81.6,64,81.6z M63.2,80.2
		c5.5,0,10.2-0.2,14.8-0.8c5.1-0.6,10.1-1.5,14.9-2.9c3.7-1.1,7.3-2.4,10.6-4.5c1.9-1.2,3.7-2.5,4.9-4.4c1.6-2.4,1.5-4.9-0.1-7.3
		c-1-1.5-2.3-2.6-3.8-3.6c-3.4-2.3-7.1-3.8-10.9-4.9c-7.4-2.2-14.9-3.3-22.6-3.7c-5.9-0.3-11.9-0.3-17.8,0.3
		c-5.1,0.4-10.1,1.2-15,2.4c-4.5,1.1-8.9,2.5-13,4.8c-2,1.1-3.9,2.5-5.4,4.4c-2.1,2.7-2.1,5.6-0.1,8.3c0.9,1.2,2,2.2,3.2,3.1
		c2.8,2,6,3.4,9.3,4.5c5.9,2,12,3.1,18.1,3.8C55,80,59.5,80.2,63.2,80.2z"/>
	<path d="M63.2,80.2c-3.7,0-8.2-0.2-12.7-0.7c-6.2-0.7-12.2-1.8-18.1-3.8c-3.3-1.1-6.5-2.5-9.3-4.5c-1.2-0.9-2.3-1.8-3.2-3.1
		c-2-2.7-2-5.7,0.1-8.3c1.5-1.9,3.3-3.2,5.4-4.4c4.1-2.3,8.5-3.7,13-4.8c4.9-1.2,9.9-1.9,15-2.4c5.9-0.5,11.9-0.6,17.8-0.3
		c7.7,0.4,15.2,1.5,22.6,3.7c3.9,1.2,7.6,2.6,10.9,4.9c1.5,1,2.8,2.1,3.8,3.6c1.6,2.4,1.6,4.9,0.1,7.3c-1.2,1.9-3,3.3-4.9,4.4
		c-3.3,2-6.9,3.4-10.6,4.5c-4.9,1.4-9.9,2.3-14.9,2.9C73.4,80,68.7,80.2,63.2,80.2z M53.8,71.3c0,0.1,0.1,0.2,0.1,0.3
		c0.4,1.1,1.1,1.9,2.3,2.2c1.3,0.4,2.5,0,3.6-0.7c1.3-0.8,2.2-2,3.1-3.3c1-1.4,2-2.7,3-4c0.4-0.5,1-0.8,1.5-1.2
		c0.2-0.1,0.6-0.1,0.8,0.1c0.2,0.1,0.2,0.5,0.2,0.8c-0.2,0.8-0.5,1.5-0.9,2.3c-1,1.9-2,3.7-3.1,5.5c-0.1,0.1-0.1,0.3-0.2,0.5
		c0.8,0,1.5,0,2.2,0c0.3,0,0.5-0.1,0.6-0.4c0.5-1.1,1.1-2.1,1.6-3.2c0.4-0.8,0.9-1.7,1.3-2.5c0.1,0.2,0.1,0.3,0.2,0.4
		c0.5,1.3,1.2,1.9,2.6,1.9c0.8,0,1.7-0.2,2.6-0.3c0,0.4-0.1,0.9,0,1.4c0.3,1.9,1.5,2.8,3.4,2.6c1.3-0.1,2.5-0.6,3.6-1.3
		c0.5,1.3,1.2,1.7,2.6,1.3c0.5-0.2,1.1-0.4,1.5-0.7c1.5-1,2.7-2.4,3.7-3.9c0.1-0.1,0.2-0.3,0.2-0.4c0-0.1-0.1-0.3-0.2-0.3
		c-0.1-0.1-0.2,0-0.3,0c-0.1,0.1-0.2,0.2-0.3,0.3c-1,1-2,1.9-3.1,2.9c-0.3,0.3-0.8,0.5-1.3,0.6c-0.5,0.2-0.8-0.2-0.7-0.7
		c0.1-0.3,0.2-0.6,0.4-0.9C87,66.7,89,62.8,91.1,59c0.2-0.3,0.3-0.7,0.6-1.1c-0.7,0-1.4,0-2,0c-0.3,0-0.5,0.1-0.7,0.4
		c-1,1.9-2.1,3.7-3.1,5.6c-0.2,0.4-0.5,0.8-0.7,1.3c-0.2-0.4-0.3-0.7-0.5-1c-0.5-0.8-1.2-1.3-2.1-1.3c-0.6,0-1.2,0.1-1.8,0.3
		c-1.2,0.3-2,1.2-2.9,2.1c-0.7,0.8-1.5,1.6-2.2,2.4c-0.7,0.7-1.6,1-2.6,1c-0.8,0-1.4-0.4-1.7-1.1c-0.2-0.7,0-1.8,0.6-2.2
		c0.1-0.1,0.2-0.1,0.4-0.2c0.1,0.1,0.1,0.2,0.2,0.3c0.4,0.8,1.2,1.2,2,1c0.8-0.2,1.4-1.2,1.3-2.1c-0.1-0.8-0.7-1.4-1.6-1.5
		c-1-0.1-1.7,0.3-2.4,1c-0.3,0.3-0.6,0.6-0.9,0.9c0-0.1,0-0.2,0-0.4c-0.1-1-0.7-1.6-1.8-1.7c-0.9-0.1-1.6,0.3-2.2,0.9
		c-0.9,1-1.8,2-2.7,3c-0.1,0.1-0.2,0.3-0.4,0.5c0-0.4,0-0.7,0-1c-0.1-0.9-0.3-1.8-0.8-2.5c-0.3-0.4-0.6-0.5-0.9-0.2
		c-0.4,0.2-0.4,0.6-0.2,1c0.2,0.6,0.5,1.2,0.5,1.8c0.1,2.1-0.8,3.8-2.3,5.1c-0.7,0.6-1.4,1-2.4,1c-0.8,0-1.3-0.4-1.6-1.1
		c-0.2-0.4-0.3-0.8-0.2-1.3c0.1-2.2,1.7-5,4.6-5.8c0.6-0.1,0.6-0.4,0.2-0.8c-0.2-0.2-0.5-0.3-0.8-0.2c-1.9,0.1-3.2,1.1-4.2,2.6
		c-0.6,1-1.2,2-1.6,3.1c-0.5,1.2-1.3,2.1-2.2,2.8c-0.1,0.1-0.3,0.2-0.4,0.3c0.3,0.9,0.4,0.9,1.2,0.5C52.8,72,53.3,71.6,53.8,71.3z
		 M60.2,53.3c0.4,0.1,1,0.3,1.6,0.5c2.7,1,5.4,1.9,8.3,2.1c2.5,0.2,4.7-0.4,6.8-1.8c0.3-0.2,0.6-0.5,0.8-0.8
		c0.1-0.2,0.1-0.5,0.1-0.7c-0.1-0.1-0.4-0.2-0.6-0.2c-0.2,0-0.4,0-0.6,0.1c-0.8,0.1-1.7,0.3-2.5,0.4c-5.3,0.4-10.5-0.3-15.6-1.3
		c-3.2-0.6-6.4-0.7-9.6-0.1c-1.9,0.4-3.6,1.1-5,2.5c-1.3,1.4-2,3-1.4,4.9c0.4,1.6,1.7,2.4,3.3,2.3c2.1-0.1,4.7-2.7,4.9-4.8
		c0-0.2-0.1-0.3-0.1-0.5c-0.1,0.1-0.3,0.2-0.4,0.3c-0.8,1.3-2,2.2-3.5,2.5c-1.3,0.3-2.1-0.5-2-1.8c0.1-1,0.5-1.8,1.1-2.5
		c0.7-0.8,1.6-1.3,2.5-1.6c3.8-1.5,7.6-0.8,11.4,0.2c-0.5,0.3-0.9,0.6-1.3,0.9c-2.1,1.7-3.9,3.8-5.4,6.1c-0.2,0.3-0.5,0.5-0.9,0.6
		c-1.1,0.2-2.2,0.5-3.3,0.9c-0.4,0.1-0.7,0.5-1,0.8c-0.1,0.1,0,0.3,0,0.5c0.2,0,0.3,0,0.5-0.1c1.1-0.8,2.4-0.9,3.8-1
		c-0.5,0.8-1,1.4-1.4,2.1c-1.5,2-3,3.9-4.9,5.5c-0.9,0.7-1.9,1.3-3,1.5c-2.2,0.5-4-0.9-3.8-3c0.1-1.6,0.9-2.7,2.3-3.6
		c0.2-0.1,0.6-0.2,0.4-0.6c-0.1-0.3-0.5-0.2-0.8-0.1c-0.8,0.4-1.6,0.7-2.3,1.3c-2.9,2.5-2.4,7,0.9,8.7c1.8,0.9,4.9,0.9,7-1.1
		c0.9-0.9,1.8-1.9,2.6-2.9c1.7-2.5,3.2-5,4.8-7.6c0.2-0.2,0.3-0.4,0.6-0.4c1.4-0.2,2.8-0.4,4.2-0.6c0.3,0,0.4,0,0.6,0.2
		c0.2,0.3,0.5,0.5,0.8,0.6c0.3,0.2,0.6,0.1,0.6-0.4c-0.1,0-0.2-0.1-0.3-0.1c-0.2-0.1-0.3-0.3-0.5-0.5c0.1-0.1,0.2-0.3,0.4-0.4
		c0.7-0.5,1.2-1.1,1.3-2c0.1-0.8-0.4-1.4-1.2-1.3c-0.6,0-1.2,0.4-1.4,1.2c-0.2,0.6-0.2,1.1-0.2,1.8c-1.2,0.1-2.5,0.3-3.9,0.5
		c0.1-0.3,0.2-0.4,0.3-0.5c1.2-2.1,2.7-4,4.6-5.6C59.7,54,59.9,53.7,60.2,53.3z"/>
	<path fill="#FFFFFF" d="M53.8,71.3c-0.5,0.4-1,0.7-1.5,1.1c-0.7,0.5-0.9,0.4-1.2-0.5c0.1-0.1,0.3-0.2,0.4-0.3
		c1-0.7,1.7-1.6,2.2-2.8c0.5-1.1,1-2.1,1.6-3.1c1-1.5,2.3-2.5,4.2-2.6c0.3,0,0.6,0.1,0.8,0.2c0.4,0.4,0.3,0.7-0.2,0.8
		c-2.9,0.7-4.5,3.5-4.6,5.8c0,0.4,0.1,0.9,0.2,1.3c0.3,0.7,0.8,1.1,1.6,1.1c0.9,0,1.7-0.3,2.4-1c1.5-1.4,2.4-3.1,2.3-5.1
		c0-0.6-0.3-1.2-0.5-1.8c-0.2-0.4-0.1-0.8,0.2-1c0.3-0.2,0.7-0.1,0.9,0.2c0.5,0.8,0.7,1.6,0.8,2.5c0,0.3,0,0.6,0,1
		c0.2-0.2,0.3-0.4,0.4-0.5c0.9-1,1.7-2,2.7-3c0.6-0.6,1.3-1,2.2-0.9c1,0.1,1.6,0.6,1.8,1.7c0,0.1,0,0.2,0,0.4
		c0.3-0.3,0.6-0.6,0.9-0.9c0.7-0.6,1.4-1,2.4-1c0.9,0.1,1.5,0.6,1.6,1.5c0.1,0.9-0.5,1.8-1.3,2.1c-0.8,0.2-1.6-0.1-2-1
		c0-0.1-0.1-0.2-0.2-0.3c-0.1,0.1-0.3,0.1-0.4,0.2c-0.5,0.4-0.8,1.5-0.6,2.2c0.2,0.7,0.9,1.1,1.7,1.1c1,0,1.9-0.3,2.6-1
		c0.8-0.8,1.5-1.6,2.2-2.4c0.8-0.9,1.7-1.7,2.9-2.1c0.6-0.2,1.2-0.3,1.8-0.3c0.9,0,1.6,0.5,2.1,1.3c0.2,0.3,0.3,0.6,0.5,1
		c0.3-0.5,0.5-0.9,0.7-1.3c1-1.9,2.1-3.7,3.1-5.6c0.2-0.3,0.3-0.4,0.7-0.4c0.6,0,1.3,0,2,0c-0.2,0.4-0.4,0.7-0.6,1.1
		c-2.1,3.9-4.1,7.7-6.2,11.6c-0.2,0.3-0.3,0.6-0.4,0.9c-0.1,0.5,0.2,0.8,0.7,0.7c0.4-0.2,0.9-0.3,1.3-0.6c1.1-0.9,2-1.9,3.1-2.9
		c0.1-0.1,0.2-0.2,0.3-0.3c0.1-0.1,0.3-0.1,0.3,0c0.1,0.1,0.2,0.2,0.2,0.3c0,0.1-0.1,0.3-0.2,0.4c-1,1.5-2.2,2.9-3.7,3.9
		c-0.5,0.3-1,0.5-1.5,0.7c-1.4,0.4-2.1,0-2.6-1.3c-1.1,0.7-2.3,1.1-3.6,1.3c-1.8,0.2-3.1-0.7-3.4-2.6c-0.1-0.5,0-1,0-1.4
		c-0.9,0.1-1.7,0.3-2.6,0.3c-1.4,0-2.1-0.5-2.6-1.9c0-0.1-0.1-0.2-0.2-0.4c-0.5,0.9-0.9,1.7-1.3,2.5c-0.5,1-1.1,2.1-1.6,3.2
		c-0.1,0.3-0.3,0.4-0.6,0.4c-0.7,0-1.4,0-2.2,0c0.1-0.2,0.1-0.3,0.2-0.5c1-1.8,2.1-3.7,3.1-5.5c0.4-0.7,0.6-1.5,0.9-2.3
		c0.1-0.2,0-0.6-0.2-0.8c-0.2-0.1-0.6-0.2-0.8-0.1c-0.5,0.3-1.1,0.7-1.5,1.2c-1.1,1.3-2.1,2.6-3,4c-0.9,1.2-1.8,2.4-3.1,3.3
		c-1.1,0.7-2.3,1.1-3.6,0.7c-1.1-0.3-1.9-1.1-2.3-2.2C53.9,71.5,53.9,71.4,53.8,71.3z M83.7,67.4c0,0-0.1,0-0.1-0.1
		c0-0.2,0-0.3,0-0.5c0-0.1,0.1-0.3,0.1-0.4c0.2-0.7,0.2-1.3-0.4-1.8c-0.6-0.5-1.2-0.4-1.9-0.1c-0.3,0.2-0.7,0.4-1,0.6
		c-1.2,0.9-2.1,2.1-2.6,3.6c-0.2,0.6-0.3,1.2-0.2,1.8c0,1,0.8,1.6,1.8,1.2c0.6-0.2,1.2-0.6,1.7-1C82.2,69.9,82.9,68.6,83.7,67.4z"/>
	<path fill="#FFFFFF" d="M60.2,53.3c-0.4,0.4-0.6,0.8-0.9,1c-1.9,1.6-3.4,3.5-4.6,5.6c-0.1,0.1-0.1,0.3-0.3,0.5
		c1.4-0.2,2.7-0.3,3.9-0.5c0.1-0.7,0.1-1.3,0.2-1.8c0.2-0.8,0.8-1.2,1.4-1.2c0.8,0,1.3,0.6,1.2,1.3c-0.1,0.9-0.6,1.5-1.3,2
		c-0.2,0.1-0.3,0.3-0.4,0.4c0.2,0.2,0.3,0.3,0.5,0.5c0.1,0.1,0.2,0.1,0.3,0.1c0,0.5-0.2,0.6-0.6,0.4c-0.3-0.1-0.6-0.4-0.8-0.6
		c-0.2-0.2-0.3-0.3-0.6-0.2c-1.4,0.2-2.8,0.4-4.2,0.6c-0.3,0-0.5,0.2-0.6,0.4c-1.6,2.5-3.2,5.1-4.8,7.6c-0.7,1.1-1.6,2-2.6,2.9
		c-2,2-5.1,2-7,1.1c-3.3-1.7-3.8-6.2-0.9-8.7c0.6-0.6,1.5-0.9,2.3-1.3c0.2-0.1,0.6-0.2,0.8,0.1c0.1,0.3-0.2,0.4-0.4,0.6
		c-1.3,0.8-2.1,2-2.3,3.6c-0.2,2.1,1.6,3.5,3.8,3c1.1-0.2,2.1-0.8,3-1.5c2-1.6,3.5-3.5,4.9-5.5c0.5-0.6,0.9-1.3,1.4-2.1
		c-1.4,0.2-2.7,0.3-3.8,1c-0.1,0.1-0.3,0.1-0.5,0.1c0-0.2-0.1-0.4,0-0.5c0.3-0.3,0.6-0.6,1-0.8c1.1-0.3,2.2-0.6,3.3-0.9
		c0.4-0.1,0.6-0.2,0.9-0.6c1.5-2.3,3.2-4.4,5.4-6.1c0.4-0.3,0.9-0.6,1.3-0.9c-3.8-1-7.6-1.7-11.4-0.2c-0.9,0.4-1.8,0.9-2.5,1.6
		c-0.6,0.7-1,1.5-1.1,2.5c-0.1,1.3,0.8,2.1,2,1.8c1.5-0.3,2.7-1.2,3.5-2.5c0.1-0.1,0.3-0.2,0.4-0.3c0.1,0.2,0.2,0.3,0.1,0.5
		c-0.2,2.1-2.8,4.7-4.9,4.8c-1.6,0.1-2.8-0.7-3.3-2.3c-0.5-1.9,0.1-3.6,1.4-4.9c1.4-1.4,3.1-2.1,5-2.5c3.2-0.7,6.4-0.5,9.6,0.1
		c5.2,1,10.4,1.7,15.6,1.3c0.9-0.1,1.7-0.3,2.5-0.4c0.2,0,0.4-0.1,0.6-0.1c0.2,0,0.5,0.1,0.6,0.2c0.1,0.2,0.1,0.5-0.1,0.7
		c-0.2,0.3-0.5,0.6-0.8,0.8c-2,1.4-4.3,2.1-6.8,1.8c-2.9-0.3-5.6-1.2-8.3-2.1C61.3,53.6,60.7,53.4,60.2,53.3z M59.3,59.8
		c0.7-0.3,1-0.7,1.2-1.4c0-0.2-0.1-0.5-0.1-0.7c-0.3,0.1-0.6,0.1-0.8,0.3C59.1,58.5,59.1,59.1,59.3,59.8z"/>
	<path d="M83.7,67.4c-0.7,1.2-1.5,2.4-2.6,3.4c-0.5,0.4-1.1,0.8-1.7,1c-1,0.3-1.7-0.2-1.8-1.2c0-0.6,0.1-1.2,0.2-1.8
		c0.4-1.5,1.3-2.7,2.6-3.6c0.3-0.2,0.6-0.4,1-0.6c0.6-0.3,1.3-0.4,1.9,0.1c0.6,0.5,0.5,1.2,0.4,1.8c0,0.1-0.1,0.3-0.1,0.4
		c0,0.2,0,0.3,0,0.5C83.6,67.4,83.6,67.4,83.7,67.4z"/>
	<path d="M59.3,59.8c-0.2-0.7-0.2-1.3,0.3-1.8c0.2-0.2,0.5-0.2,0.8-0.3c0,0.2,0.2,0.5,0.1,0.7C60.3,59.1,60,59.6,59.3,59.8z"/>
</g>
</svg>
