<?xml version="1.0" encoding="utf-8"?>
<!-- Generator: Adobe Illustrator 18.0.0, SVG Export Plug-In . SVG Version: 6.00 Build 0)  -->
<!DOCTYPE svg PUBLIC "-//W3C//DTD SVG 1.1//EN" "http://www.w3.org/Graphics/SVG/1.1/DTD/svg11.dtd">
<svg version="1.1" id="Слой_2" xmlns="http://www.w3.org/2000/svg" xmlns:xlink="http://www.w3.org/1999/xlink" x="0px" y="0px"
	 viewBox="0 0 128 128" enable-background="new 0 0 128 128" xml:space="preserve">
<path d="M108.7,57.2c-1.3-2.5-3.3-4.5-5.5-6.2c-4-3.1-8.5-5.3-13.3-6.9c-3.7-1.3-7.5-2.2-11.4-2.8c-2.5-0.4-5.1-0.6-7.6-0.9
	c-0.8-0.1-1.6-0.1-2.5-0.2h-7.8c-0.1,0-0.3,0.1-0.4,0.1c-2.5,0.2-5.1,0.4-7.6,0.7c-4.2,0.5-8.3,1.4-12.3,2.6
	c-4.7,1.5-9.2,3.4-13.3,6.1c-2.8,1.9-5.4,4.1-7.2,7c-2.8,4.4-3.1,8.9-0.7,13.5c1.4,2.7,3.5,4.8,5.9,6.7c4,3.1,8.4,5.1,13.2,6.7
	c7.2,2.4,14.7,3.5,22.3,3.8c4.5,0.1,9.1,0,13.6-0.6c3.5-0.4,6.9-1,10.3-1.9c5.5-1.4,10.8-3.4,15.7-6.4c3.2-2,6-4.3,8.1-7.5
	C111.1,66.7,111.4,62,108.7,57.2z M33,72.4c-0.3,0.9-0.7,1.7-1.1,2.5c-0.7,1.2-1.4,1.4-2.6,0.8c-0.9-0.5-1.8-1.1-2.6-1.9
	C24.7,72,23,70,22.1,67.5c-0.4-1.1-0.7-2.3-0.7-3.5c0-2.8,1.2-5,3-7.1c2.3-2.7,5.2-4.6,8.3-6.3c3.9-2,8.1-3.5,12.3-4.6
	c0.9-0.3,1.9-0.2,2.9-0.3c0.3,0,0.7,0.1,0.8,0.3c0.1,0.1-0.1,0.5-0.2,0.8c-1.3,1.8-2.8,3.5-4.1,5.3C39.8,58.5,35.7,65,33,72.4z
	 M72,78.2c-0.9,1.7-2.1,3.2-3.6,4.4c-1.1,0.9-2.3,1.3-3.7,1.4c-1,0.1-2,0.1-3,0.2c0,0,0,0.1,0,0.1c-2.9-0.3-5.8-0.5-8.7-0.9
	c-2.7-0.4-5.3-0.8-8-1.4c-1.8-0.4-3.6-1-5.3-1.5c-1.2-0.3-1.6-0.9-0.3-1.9c4.5-3.6,9.6-6.2,14.9-8.3c3.5-1.4,7.1-2.3,10.8-2.9
	c1.7-0.3,3.5-0.4,5.2,0c2.2,0.5,3.5,2.1,3.5,4.3C74,74.1,73.1,76.2,72,78.2z M69.2,59.1c-2.9,1-5.9,1.9-9,2c-1,0-2-0.1-3-0.4
	c-1.7-0.4-2.8-1.7-2.8-3.4c-0.1-4.8,1.4-8.9,5.2-12c1.5-1.2,3.2-1.5,5-1.6c0.2,0,0.5,0,0.7,0c3.4-0.1,6.7,0.1,10,0.6
	c3.8,0.5,7.6,1.4,11.3,2.5c0.7,0.2,1.4,0.5,2,0.8c0.9,0.5,1,1.1,0.2,1.8c-0.6,0.5-1.2,0.9-1.9,1.3C81.4,54.1,75.5,56.9,69.2,59.1z
	 M103.7,71c-2.2,2.7-5,4.5-8,6.1c-4.7,2.5-9.7,4.1-14.9,5c-0.2,0-0.7,0-0.7-0.1c0-0.3-0.1-0.7,0.1-0.9c0.7-1,1.5-2,2.2-3
	c2.5-3.3,4.6-6.8,6.6-10.4c2.4-4.1,4.5-8.4,6.5-12.7c0.3-0.7,0.7-1.3,1-2c0.5-0.9,0.9-1.2,2-0.7c4.1,2,6.7,5.3,7.8,9.8
	c0.1,0.6,0.1,1.2,0.2,1.5C106.4,66.7,105.4,69,103.7,71z"/>
</svg>
