<?xml version="1.0" encoding="utf-8"?>
<!-- Generator: Adobe Illustrator 18.0.0, SVG Export Plug-In . SVG Version: 6.00 Build 0)  -->
<!DOCTYPE svg PUBLIC "-//W3C//DTD SVG 1.1//EN" "http://www.w3.org/Graphics/SVG/1.1/DTD/svg11.dtd">
<svg version="1.1" id="Слой_2" xmlns="http://www.w3.org/2000/svg" xmlns:xlink="http://www.w3.org/1999/xlink" x="0px" y="0px"
	 viewBox="0 0 128 128" enable-background="new 0 0 128 128" xml:space="preserve">
<path d="M97.5,61.1c-0.2-2.9-0.2-3-3-3.6c-0.9-0.2-1.6-0.4-1.9-1.4c-4.2-13-17.8-21.4-31.9-19.5c-11.4,1.5-19.6,7.5-24.1,18.3
	c-0.6,1.6-1.4,2.5-3.1,2.6c-1.6,0.1-2.4,1-2.4,2.6c0,3.4,0,6.8,0.2,10.2c0,0.5,0.9,1.5,1.4,1.5c2.4,0,3.7,1.1,4.1,3.4
	c0,0.2,0.1,0.3,0.2,0.5c5,10.5,13.5,16,24.9,17.3c12.7,1.3,25.7-6.6,30.1-18.3c0.6-1.6,1.3-2.5,3.1-2.5c1.6,0.1,2.2-0.9,2.2-2.4
	c0-1.6,0.2-3.2,0.3-4.8C97.7,63.7,97.6,62.4,97.5,61.1z M64.4,43.4c8.9,0.1,18.1,5.7,20.2,12.6H44.3C46.2,50.5,53.9,43.3,64.4,43.4z
	 M80.3,68c-0.2,0.2-0.3,0.4-0.5,0.6c-0.7-0.4-1.4-1.2-2.1-1.3c-1.5-0.2-3.3-0.5-4.6,0.1c-0.9,0.5-1.5,0.9-2.7,0.7
	c1-2.3,1.9-4.5,3-6.6c0.5-1.1,3.5-0.9,4,0.2C78.4,63.8,79.3,65.9,80.3,68z M64.2,65.3c-0.9-0.2-1.9-0.4-2.4-1
	c-1.1-1.3,0-3.2,1.7-3.4c1.7-0.1,3.3-0.1,5,0c0.4,0,0.7,0.7,1.1,1.1c-0.1,0.2-0.2,0.4-0.3,0.5h-5.5c0,0.2-0.1,0.3-0.1,0.5
	c0.4,0.2,0.7,0.4,1.1,0.4c1,0.1,2.1,0.2,3.1,0.3c1.4,0.2,2,1.1,2,2.5c-0.1,1.5-1,1.9-2.3,2c-1.6,0-3.2,0-4.8,0
	c-0.4,0-0.7-0.5-1.1-0.7c0.4-0.3,0.8-0.8,1.1-0.8c1.6-0.1,3.3,0,4.9,0c0-0.3,0-0.6,0.1-0.9C66.5,65.6,65.3,65.6,64.2,65.3z
	 M54.6,65.3c-0.9-0.3-2-0.7-2.4-1.5c-0.7-1.4,0.3-2.8,1.9-2.9c1.7-0.1,3.3-0.1,5,0c0.4,0,0.7,0.7,1.1,1.1c-0.1,0.2-0.2,0.4-0.3,0.5
	h-5.5c0,0.2-0.1,0.3-0.1,0.5c0.4,0.2,0.7,0.4,1.1,0.4c1.1,0.1,2.2,0.2,3.3,0.3c1.4,0.2,1.9,1.1,1.8,2.5c-0.1,1.4-0.9,1.9-2.1,1.9
	c-1.7,0-3.4,0-5,0c-0.4,0-0.7-0.5-1.1-0.7c0.4-0.3,0.7-0.8,1.1-0.8c1.2-0.1,2.4,0,3.6-0.1c0.5,0,0.9-0.2,1.3-0.2v-0.7
	C57,65.6,55.8,65.6,54.6,65.3z M50.4,60.9v7.3h-1.9V61C49.1,60.9,49.7,60.9,50.4,60.9z M42.3,66.5c-0.7-1.1-1.4-2.1-2.4-3.7v5.4H38
	v-7.1c2.4-0.7,3.8,0.1,4.8,2.1c0.5,1.1,1.3,2.1,2.3,3.6V61c0.6,0,1.1-0.1,1.7-0.1V68C44.3,68.8,43.7,68.5,42.3,66.5z M64.6,86.1
	C54,86.1,46,78.9,44.3,73.4h40.3C82.7,79.3,74.6,86,64.6,86.1z M90.4,68c-2.4,0.8-3.3,0.5-4.6-1.5c-0.7-1.1-1.4-2.2-2.5-3.2v4.9
	h-1.8v-7.1c2.1-0.5,3.6-0.2,4.6,1.9c0.5,1.1,1.3,2.1,2.3,3v-5.1c0.8,0,1.3,0.1,1.9,0.1V68z"/>
<path d="M75.6,62.5c0.4,0.9,0.8,1.7,1.2,2.7c-1.1,0-1.9,0-3,0c0.5-1,0.8-1.9,1.2-2.7C75.2,62.5,75.4,62.5,75.6,62.5z"/>
</svg>
