<?xml version="1.0" encoding="utf-8"?>
<!-- Generator: Adobe Illustrator 18.0.0, SVG Export Plug-In . SVG Version: 6.00 Build 0)  -->
<!DOCTYPE svg PUBLIC "-//W3C//DTD SVG 1.1//EN" "http://www.w3.org/Graphics/SVG/1.1/DTD/svg11.dtd">
<svg version="1.1" id="Слой_2" xmlns="http://www.w3.org/2000/svg" xmlns:xlink="http://www.w3.org/1999/xlink" x="0px" y="0px"
	 viewBox="0 0 128 128" enable-background="new 0 0 128 128" xml:space="preserve">
<path d="M99.1,55.2c-1.7-2.3-4-4.4-6.3-6c-9.4-6.6-20-8.5-31.2-8c-8.9,0.4-17.4,2.6-24.9,7.7c-5.3,3.6-9.4,8.1-10.3,14.7
	c-1.2,8.3,2.9,14.3,9.2,18.9c8.6,6.3,18.5,8.5,29,8.7c3.2-0.3,6.5-0.4,9.6-0.9C83,88.8,91.1,85.6,97.5,79
	C104.2,71.9,104.9,62.9,99.1,55.2z M44.7,48.1c3.9-2.5,8.4-3.4,12.9-3.9c7.8-0.8,15.5-0.6,23,2.1c1.5,0.5,3,1.3,4.3,2.2
	c2.8,2,2.9,4.8,0.1,6.9c-3.3,2.5-7.3,3.4-11.4,4.1c-1.1-3.3-1.9-6.4-3.1-9.3c-1.1-2.7-2.8-5.6-6.2-5.5c-3.3,0-4.9,2.8-6,5.4
	c-1.1,2.5-1.6,5.3-2.5,7.9c-0.2,0.6-1.2,1.4-1.6,1.3c-3.3-1-6.7-1.9-9.7-3.5C40.8,53.7,41,50.5,44.7,48.1z M70.5,60h-12
	c1.3-3,2-5.7,3.4-8c1.4-2.3,3.8-2.4,5.2,0C68.5,54.3,69.3,57,70.5,60z M57,88.2c-8.2-1.4-15.5-4.5-21.1-10.8
	c-5.9-6.6-6.4-15.8-1.4-22.5c0.2-0.3,0.5-0.6,0.8-0.9c3.1,7.8,10.1,9.6,17,11.3c2.2,0.5,3,1.1,3.1,3.6c0.2,7,1.2,13.8,6.5,19.9
	C59.9,88.5,58.4,88.4,57,88.2z M61.9,79.3c-2.5-3.5-2.9-7.7-3.2-11.8c0-0.4,0.7-1.1,1.1-1.1c3.4-0.1,6.9,0,10.5,0
	c0,4.8-0.5,9.1-3.2,12.9C65.6,81.5,63.5,81.5,61.9,79.3z M97.9,66.9c-1,8-6,13.1-12.7,16.8c-5,2.8-10.4,4.2-16,4.9
	c-0.4,0-0.9-0.1-1.8-0.1c3.4-3.8,4.9-8.2,5.7-12.9c0.4-2.5,0.7-5,0.7-7.6c0-1.7,0.7-2.3,2.3-2.8c3.9-1.2,7.9-2.5,11.6-4.2
	c3-1.3,5-3.8,6-7.4C97,57.7,98.5,62,97.9,66.9z"/>
</svg>
