<?xml version="1.0" encoding="utf-8"?>
<!-- Generator: Adobe Illustrator 18.0.0, SVG Export Plug-In . SVG Version: 6.00 Build 0)  -->
<!DOCTYPE svg PUBLIC "-//W3C//DTD SVG 1.1//EN" "http://www.w3.org/Graphics/SVG/1.1/DTD/svg11.dtd">
<svg version="1.1" id="Слой_2" xmlns="http://www.w3.org/2000/svg" xmlns:xlink="http://www.w3.org/1999/xlink" x="0px" y="0px"
	 viewBox="0 0 194 66" enable-background="new 0 0 194 66" xml:space="preserve">
<rect y="0" fill="#354099" width="194" height="66"/>
<g>
	<g>
		<path fill="#FFFFFF" d="M99.4,47h4.1v1.7c0.6-0.7,1.2-1.2,1.8-1.5c0.6-0.3,1.3-0.4,2.2-0.4c0.9,0,1.7,0.2,2.2,0.5
			c0.5,0.3,1,0.8,1.3,1.5c0.7-0.8,1.3-1.3,1.9-1.5c0.6-0.3,1.3-0.4,2.1-0.4c1.2,0,2.2,0.4,2.9,1.1s1,1.9,1,3.5v7.3h-4.5V52
			c0-0.5-0.1-0.9-0.3-1.2c-0.3-0.4-0.7-0.6-1.1-0.6c-0.5,0-0.9,0.2-1.3,0.6c-0.3,0.4-0.5,1-0.5,1.8v6H107v-6.4c0-0.5,0-0.9-0.1-1
			c-0.1-0.3-0.3-0.5-0.5-0.7c-0.2-0.2-0.5-0.3-0.8-0.3c-0.5,0-0.9,0.2-1.3,0.6s-0.5,1-0.5,1.9v5.9h-4.5V47z"/>
		<path fill="#FFFFFF" d="M121.1,52.9c0-1.8,0.6-3.2,1.8-4.4c1.2-1.1,2.8-1.7,4.8-1.7c2.3,0,4.1,0.7,5.3,2c1,1.1,1.4,2.4,1.4,4
			c0,1.8-0.6,3.2-1.8,4.4c-1.2,1.1-2.8,1.7-4.9,1.7c-1.9,0-3.4-0.5-4.5-1.4C121.8,56.3,121.1,54.8,121.1,52.9z M125.6,52.8
			c0,1,0.2,1.8,0.6,2.3c0.4,0.5,0.9,0.7,1.6,0.7c0.6,0,1.2-0.2,1.6-0.7s0.6-1.3,0.6-2.3c0-1-0.2-1.8-0.6-2.2
			c-0.4-0.5-0.9-0.7-1.5-0.7c-0.6,0-1.2,0.2-1.6,0.7C125.8,51.1,125.6,51.8,125.6,52.8z"/>
		<path fill="#FFFFFF" d="M142,42.6V47h2.4v3.3H142v4.1c0,0.5,0,0.8,0.1,1c0.1,0.2,0.4,0.4,0.8,0.4c0.3,0,0.8-0.1,1.4-0.3l0.3,3.1
			c-1.1,0.2-2.1,0.4-3.1,0.4c-1.1,0-1.9-0.1-2.4-0.4c-0.5-0.3-0.9-0.7-1.2-1.3c-0.3-0.6-0.4-1.5-0.4-2.8v-4.1h-1.6V47h1.6v-2.1
			L142,42.6z"/>
		<path fill="#FFFFFF" d="M146,52.9c0-1.8,0.6-3.2,1.8-4.4c1.2-1.1,2.8-1.7,4.8-1.7c2.3,0,4.1,0.7,5.3,2c1,1.1,1.4,2.4,1.4,4
			c0,1.8-0.6,3.2-1.8,4.4c-1.2,1.1-2.8,1.7-4.9,1.7c-1.9,0-3.4-0.5-4.5-1.4C146.7,56.3,146,54.8,146,52.9z M150.4,52.8
			c0,1,0.2,1.8,0.6,2.3c0.4,0.5,0.9,0.7,1.6,0.7c0.6,0,1.2-0.2,1.6-0.7s0.6-1.3,0.6-2.3c0-1-0.2-1.8-0.6-2.2
			c-0.4-0.5-0.9-0.7-1.5-0.7c-0.6,0-1.2,0.2-1.6,0.7C150.6,51.1,150.4,51.8,150.4,52.8z"/>
		<path fill="#FFFFFF" d="M161.5,47h4.2v1.9c0.4-0.8,0.8-1.4,1.2-1.7c0.4-0.3,1-0.5,1.6-0.5c0.7,0,1.4,0.2,2.1,0.6l-1.4,3.2
			c-0.5-0.2-0.9-0.3-1.2-0.3c-0.6,0-1,0.2-1.4,0.7c-0.5,0.7-0.7,1.9-0.7,3.8v3.9h-4.5V47z"/>
		<path fill="#FFFFFF" d="M171.1,55.4l4.4-0.4c0.2,0.5,0.4,0.9,0.8,1.1s0.8,0.3,1.3,0.3c0.6,0,1.1-0.1,1.4-0.4
			c0.3-0.2,0.4-0.4,0.4-0.7c0-0.3-0.2-0.6-0.5-0.7c-0.2-0.1-0.9-0.3-1.9-0.5c-1.5-0.3-2.6-0.5-3.2-0.7c-0.6-0.2-1.1-0.6-1.5-1.2
			s-0.6-1.2-0.6-1.9c0-0.8,0.2-1.4,0.7-2c0.4-0.6,1.1-1,1.8-1.2s1.8-0.4,3.1-0.4c1.4,0,2.4,0.1,3.1,0.3s1.2,0.5,1.6,1
			c0.4,0.4,0.8,1,1.1,1.8l-4.2,0.4c-0.1-0.4-0.3-0.6-0.5-0.8c-0.3-0.2-0.8-0.3-1.3-0.3c-0.5,0-0.9,0.1-1.1,0.3
			c-0.2,0.2-0.3,0.4-0.3,0.6c0,0.3,0.1,0.5,0.4,0.6s0.9,0.3,1.9,0.4c1.5,0.2,2.6,0.4,3.3,0.7c0.7,0.3,1.3,0.7,1.7,1.3
			c0.4,0.6,0.6,1.2,0.6,1.8c0,0.7-0.2,1.3-0.6,2c-0.4,0.6-1,1.1-1.9,1.5s-2.1,0.6-3.6,0.6c-2.1,0-3.6-0.3-4.5-0.9
			S171.4,56.5,171.1,55.4z"/>
	</g>
</g>
<g>
	<g>
		<path fill="#FFFFFF" d="M12.5,55.4h-0.9l-0.4-1H9.6l-0.3,1H8.3l1.7-4.2h0.9L12.5,55.4z M11,53.7l-0.6-1.6l-0.6,1.6H11z"/>
		<path fill="#FFFFFF" d="M13,51.1h1.7c0.3,0,0.6,0,0.8,0c0.2,0,0.3,0.1,0.4,0.2c0.1,0.1,0.2,0.2,0.3,0.4c0.1,0.1,0.1,0.3,0.1,0.5
			c0,0.2-0.1,0.4-0.2,0.5s-0.3,0.3-0.4,0.4c0.3,0.1,0.5,0.2,0.6,0.4c0.1,0.2,0.2,0.4,0.2,0.6c0,0.2,0,0.4-0.1,0.6
			c-0.1,0.2-0.2,0.3-0.4,0.4c-0.2,0.1-0.3,0.2-0.6,0.2c-0.1,0-0.5,0-1,0H13V51.1z M13.9,51.8v1h0.6c0.3,0,0.5,0,0.6,0
			c0.1,0,0.3-0.1,0.3-0.2c0.1-0.1,0.1-0.2,0.1-0.3c0-0.1,0-0.2-0.1-0.3s-0.2-0.1-0.3-0.1c-0.1,0-0.3,0-0.7,0H13.9z M13.9,53.5v1.1
			h0.8c0.3,0,0.5,0,0.6,0c0.1,0,0.2-0.1,0.3-0.2c0.1-0.1,0.1-0.2,0.1-0.4c0-0.1,0-0.2-0.1-0.3c-0.1-0.1-0.2-0.2-0.3-0.2
			c-0.1,0-0.4-0.1-0.8-0.1H13.9z"/>
		<path fill="#FFFFFF" d="M18,55.4v-3.5h-1.3v-0.7h3.4v0.7h-1.3v3.5H18z"/>
		<path fill="#FFFFFF" d="M20.4,53.3c0-0.4,0.1-0.8,0.2-1.1c0.1-0.2,0.2-0.4,0.4-0.6c0.2-0.2,0.3-0.3,0.5-0.4
			c0.3-0.1,0.6-0.2,0.9-0.2c0.6,0,1.1,0.2,1.5,0.6s0.6,0.9,0.6,1.6c0,0.7-0.2,1.2-0.6,1.6c-0.4,0.4-0.9,0.6-1.5,0.6
			c-0.6,0-1.1-0.2-1.5-0.6S20.4,54,20.4,53.3z M21.2,53.2c0,0.5,0.1,0.8,0.3,1.1c0.2,0.2,0.5,0.4,0.8,0.4s0.6-0.1,0.8-0.4
			c0.2-0.2,0.3-0.6,0.3-1.1c0-0.5-0.1-0.8-0.3-1.1s-0.5-0.4-0.8-0.4c-0.4,0-0.6,0.1-0.9,0.4C21.3,52.4,21.2,52.8,21.2,53.2z"/>
		<path fill="#FFFFFF" d="M25.1,55.4v-4.2h1.3l0.8,2.9l0.8-2.9h1.3v4.2h-0.8V52l-0.8,3.3h-0.8L25.9,52v3.3H25.1z"/>
		<path fill="#FFFFFF" d="M29.9,53.3c0-0.4,0.1-0.8,0.2-1.1c0.1-0.2,0.2-0.4,0.4-0.6c0.2-0.2,0.3-0.3,0.5-0.4
			c0.3-0.1,0.6-0.2,0.9-0.2c0.6,0,1.1,0.2,1.5,0.6s0.6,0.9,0.6,1.6c0,0.7-0.2,1.2-0.6,1.6c-0.4,0.4-0.9,0.6-1.5,0.6
			c-0.6,0-1.1-0.2-1.5-0.6S29.9,54,29.9,53.3z M30.8,53.2c0,0.5,0.1,0.8,0.3,1.1c0.2,0.2,0.5,0.4,0.8,0.4s0.6-0.1,0.8-0.4
			c0.2-0.2,0.3-0.6,0.3-1.1c0-0.5-0.1-0.8-0.3-1.1s-0.5-0.4-0.8-0.4c-0.4,0-0.6,0.1-0.9,0.4C30.9,52.4,30.8,52.8,30.8,53.2z"/>
		<path fill="#FFFFFF" d="M34.7,51.1h3.2v0.7h-2.3v1h1.1c0.3,0,0.6,0,0.8,0.1c0.2,0.1,0.4,0.2,0.5,0.4s0.2,0.5,0.2,0.7
			c0,0.3-0.1,0.5-0.2,0.7s-0.3,0.3-0.5,0.4c-0.2,0.1-0.5,0.1-0.8,0.1h-2V51.1z M35.5,54.7h0.8c0.3,0,0.5,0,0.6,0
			c0.1,0,0.2-0.1,0.3-0.2c0.1-0.1,0.1-0.2,0.1-0.3c0-0.2-0.1-0.3-0.2-0.4c-0.1-0.1-0.4-0.1-0.7-0.1h-0.9V54.7z"/>
		<path fill="#FFFFFF" d="M38.9,51.1h0.8V54l1.7-2.8h0.9v4.2h-0.8v-2.8l-1.7,2.8h-0.9V51.1z"/>
		<path fill="#FFFFFF" d="M43.5,51.1h3v4.2h-0.9v-3.5h-1.3v1.8c0,0.5,0,0.9-0.1,1.1s-0.1,0.4-0.3,0.5c-0.1,0.1-0.3,0.2-0.6,0.2
			c-0.1,0-0.3,0-0.5,0v-0.7l0.2,0c0.2,0,0.3,0,0.4-0.1c0.1,0,0.1-0.2,0.1-0.4l0-0.7V51.1z"/>
		<path fill="#FFFFFF" d="M47.4,51.1h0.9v1.7h1.1c0.5,0,0.9,0.1,1.2,0.4c0.2,0.3,0.4,0.6,0.4,0.9c0,0.3-0.1,0.5-0.2,0.7
			s-0.3,0.3-0.5,0.4c-0.2,0.1-0.5,0.1-0.8,0.1h-2V51.1z M48.2,54.7H49c0.3,0,0.5,0,0.6,0c0.1,0,0.2-0.1,0.3-0.2
			c0.1-0.1,0.1-0.2,0.1-0.3c0-0.2-0.1-0.3-0.2-0.4c-0.1-0.1-0.4-0.1-0.7-0.1h-0.9V54.7z"/>
		<path fill="#FFFFFF" d="M51.6,55.4v-4.2h0.9v1.7h1.7v-1.7H55v4.2h-0.9v-1.9h-1.7v1.9H51.6z"/>
		<path fill="#FFFFFF" d="M55.9,51.1h0.9v1.7h1.1c0.3,0,0.6,0,0.8,0.1c0.2,0.1,0.4,0.2,0.5,0.4s0.2,0.5,0.2,0.7
			c0,0.3-0.1,0.5-0.2,0.7c-0.2,0.2-0.3,0.3-0.5,0.4s-0.5,0.1-0.8,0.1h-2V51.1z M56.8,54.7h0.8c0.3,0,0.5,0,0.6,0
			c0.1,0,0.2-0.1,0.3-0.2c0.1-0.1,0.1-0.2,0.1-0.3c0-0.2-0.1-0.3-0.2-0.4c-0.1-0.1-0.4-0.1-0.7-0.1h-0.9V54.7z M59.9,51.1h0.9v4.2
			h-0.9V51.1z"/>
		<path fill="#FFFFFF" d="M61.7,51.1h0.8V54l1.7-2.8h0.9v4.2h-0.8v-2.8l-1.7,2.8h-0.9V51.1z M63.9,50.1h0.4c0,0.3-0.1,0.5-0.3,0.6
			s-0.4,0.2-0.6,0.2s-0.5-0.1-0.6-0.2c-0.2-0.1-0.3-0.4-0.3-0.6h0.4c0,0.1,0.1,0.2,0.1,0.3c0.1,0.1,0.2,0.1,0.4,0.1
			c0.2,0,0.3,0,0.4-0.1S63.9,50.2,63.9,50.1z"/>
		<path fill="#FFFFFF" d="M67.1,55.4l1.4-2.2l-1.3-2h1l0.9,1.4l0.8-1.4h1l-1.3,2.1l1.4,2.2h-1l-0.9-1.5l-0.9,1.5H67.1z"/>
		<path fill="#FFFFFF" d="M71.2,53.3c0-0.4,0.1-0.8,0.2-1.1c0.1-0.2,0.2-0.4,0.4-0.6c0.2-0.2,0.3-0.3,0.5-0.4
			c0.3-0.1,0.6-0.2,0.9-0.2c0.6,0,1.1,0.2,1.5,0.6s0.6,0.9,0.6,1.6c0,0.7-0.2,1.2-0.6,1.6c-0.4,0.4-0.9,0.6-1.5,0.6
			c-0.6,0-1.1-0.2-1.5-0.6S71.2,54,71.2,53.3z M72.1,53.2c0,0.5,0.1,0.8,0.3,1.1c0.2,0.2,0.5,0.4,0.8,0.4s0.6-0.1,0.8-0.4
			c0.2-0.2,0.3-0.6,0.3-1.1c0-0.5-0.1-0.8-0.3-1.1s-0.5-0.4-0.8-0.4c-0.4,0-0.6,0.1-0.9,0.4C72.2,52.4,72.1,52.8,72.1,53.2z"/>
		<path fill="#FFFFFF" d="M76.1,51.1h3v4.2h-0.9v-3.5H77v1.8c0,0.5,0,0.9-0.1,1.1s-0.1,0.4-0.3,0.5c-0.1,0.1-0.3,0.2-0.6,0.2
			c-0.1,0-0.3,0-0.5,0v-0.7l0.2,0c0.2,0,0.3,0,0.4-0.1c0.1,0,0.1-0.2,0.1-0.4l0-0.7V51.1z"/>
		<path fill="#FFFFFF" d="M80.3,51.1h2.9v3.5h0.4v1.6h-0.7v-0.9h-2.7v0.9h-0.7v-1.6h0.4c0.2-0.4,0.3-0.8,0.3-1.3
			c0.1-0.5,0.1-1.1,0.1-1.8V51.1z M81.1,51.8c0,1.3-0.1,2.2-0.3,2.8h1.6v-2.8H81.1z"/>
		<path fill="#FFFFFF" d="M84.2,51.1H85V54l1.7-2.8h0.9v4.2h-0.8v-2.8l-1.7,2.8h-0.9V51.1z"/>
		<path fill="#FFFFFF" d="M88.5,55.4v-4.2h0.9v1.7H91v-1.7h0.9v4.2H91v-1.9h-1.7v1.9H88.5z"/>
		<path fill="#FFFFFF" d="M92.8,51.1h2.9v0.7h-2v3.5h-0.9V51.1z"/>
	</g>
</g>
<g>
	<g>
		<path fill="#F5EE00" d="M9.3,32.6L19,32c0.2,1.6,0.6,2.8,1.3,3.6c1,1.3,2.5,2,4.5,2c1.4,0,2.6-0.3,3.3-1c0.8-0.7,1.2-1.5,1.2-2.4
			c0-0.9-0.4-1.6-1.1-2.3c-0.7-0.7-2.5-1.3-5.2-1.9c-4.4-1-7.6-2.3-9.5-4c-1.9-1.7-2.9-3.8-2.9-6.3c0-1.7,0.5-3.3,1.5-4.8
			c1-1.5,2.4-2.7,4.4-3.5c2-0.9,4.6-1.3,8.1-1.3c4.2,0,7.4,0.8,9.6,2.3s3.5,4,3.9,7.4l-9.6,0.6c-0.3-1.5-0.8-2.6-1.6-3.2
			c-0.8-0.7-1.9-1-3.4-1c-1.2,0-2.1,0.3-2.7,0.7c-0.6,0.5-0.9,1.1-0.9,1.8c0,0.5,0.2,1,0.7,1.4c0.5,0.4,1.6,0.8,3.4,1.2
			c4.4,1,7.6,1.9,9.5,2.9c1.9,1,3.3,2.2,4.2,3.6c0.9,1.4,1.3,3.1,1.3,4.9c0,2.1-0.6,4-1.7,5.8c-1.2,1.8-2.8,3.1-4.9,4
			c-2.1,0.9-4.7,1.4-7.9,1.4c-5.6,0-9.4-1.1-11.6-3.2C10.8,38.6,9.6,35.9,9.3,32.6z"/>
		<path fill="#F5EE00" d="M64.4,38H52.9l-1.6,5.4H40.9l12.3-32.8h11.1l12.3,32.8H66L64.4,38z M62.3,30.9l-3.6-11.8l-3.6,11.8H62.3z"
			/>
		<path fill="#F5EE00" d="M79.7,10.6h13.3l5.1,20l5.1-20h13.3v32.8h-8.3v-25l-6.4,25h-7.5l-6.4-25v25h-8.3V10.6z"/>
		<path fill="#F5EE00" d="M143.2,38h-11.5l-1.6,5.4h-10.3l12.3-32.8h11.1l12.3,32.8h-10.6L143.2,38z M141.1,30.9l-3.6-11.8
			l-3.6,11.8H141.1z"/>
		<path fill="#F5EE00" d="M158.7,10.6h10.1v24.7h15.8v8.1h-26V10.6z"/>
	</g>
</g>
<line fill="none" stroke="#F5EE00" stroke-miterlimit="10" x1="9" y1="47.9" x2="96.3" y2="47.9"/>
</svg>
